:SAMPLES-PER-SECOND 30
:FULLY-SPECIFIED
:DEGREES
232
root  74.9761 38.5881 1.96368 18.395 -84.3037 8.30959
RightUpLeg  -49.3412 -22.5969 14.4875
RightLeg  25.2625 -1.88623 -1.19812
RightFoot  -5.1922 0.179297 -3.98928
RightToes  2.91037e-010 0 -3.6325e-017
Spine  87.1511 -9.87844 8.87484
Spine1  9.62711 1.53937 -4.71102
HEad  -38.5896 -5.8082 0.0938033
LeftShoulder1  6.66359 -28.2299 -13.8407
LeftArm  -85.3807 -58.8675 40.0428
LeftForeArm  -3.22048 -12.9951 -0.0142806
LeftHand  -0.244104 0.0205437 5.32207
RightShoulder  4.34092 19.9267 11.4215
RightArm  -75.1832 49.1689 -30.8314
RightForeArm  -21.9024 14.8604 3.54012
RightHand  -0.868291 8.88576 -7.41474
LeftUpLeg  -45.9144 12.53 -8.70194
LeftLeg  24.8178 1.91615 1.30579
LeftFoot  -6.42342 0.055687 -0.38749
LeftToes  -1.10052e-010 1.3781e-010 -2.1811e-011
233
root  75.0969 38.6251 2.09101 20.3537 -84.0496 5.78293
RightUpLeg  -48.7622 -23.1299 14.5766
RightLeg  24.7905 -1.65818 -1.06271
RightFoot  -4.72184 0.203067 -4.05841
RightToes  2.91037e-010 0 -3.6325e-017
Spine  87.7909 -10.318 9.29685
Spine1  8.44034 1.62696 -4.80076
HEad  -37.7149 -6.18937 -0.0295164
LeftShoulder1  7.61665 -28.8945 -16.5751
LeftArm  -83.6717 -59.8456 41.0182
LeftForeArm  -0.592925 -12.2296 -0.687634
LeftHand  -0.244104 0.0205437 5.32207
RightShoulder  4.56366 19.3379 12.9329
RightArm  -74.6598 50.8399 -32.1975
RightForeArm  -21.7377 13.2005 3.44802
RightHand  -1.20055 8.63989 -10.2889
LeftUpLeg  -45.5275 13.0972 -8.88028
LeftLeg  24.7286 1.17261 0.928229
LeftFoot  -6.24227 0.0593739 -0.488405
LeftToes  -1.10052e-010 1.3781e-010 -2.1811e-011
234
root  75.2148 38.6759 2.21537 22.624 -84.2208 2.68044
RightUpLeg  -47.7708 -23.4657 14.5805
RightLeg  24.12 -1.31284 -0.868071
RightFoot  -4.11918 0.245934 -4.33257
RightToes  2.91037e-010 0 -3.6325e-017
Spine  88.236 -11.578 9.3225
Spine1  7.54037 1.45961 -7.84882
HEad  -36.8863 -5.74318 1.33301
LeftShoulder1  6.83673 -29.1504 -13.7705
LeftArm  -80.57 -60.1561 38.3056
LeftForeArm  2.29158 -11.0152 -0.627214
LeftHand  -0.244104 0.0205437 5.32207
RightShoulder  4.92728 19.1687 14.8589
RightArm  -75.5455 52.7965 -32.4219
RightForeArm  -21.4606 11.8163 3.14957
RightHand  -1.70314 8.05389 -14.9557
LeftUpLeg  -44.8165 13.8784 -8.93683
LeftLeg  24.5126 0.680817 0.676679
LeftFoot  -5.99431 0.048722 -0.274034
LeftToes  -1.10052e-010 1.3781e-010 -2.1811e-011
235
root  75.3557 38.7241 2.36437 26.3181 -84.2482 -1.76808
RightUpLeg  -46.9157 -24.0045 14.8574
RightLeg  23.3867 -0.790579 -0.598234
RightFoot  -3.43613 0.290245 -4.53366
RightToes  2.91037e-010 0 -3.6325e-017
Spine  87.6156 -11.6845 9.83389
Spine1  7.30871 1.81247 -8.02164
HEad  -35.9978 -6.23484 1.09666
LeftShoulder1  7.50045 -30.1948 -15.1883
LeftArm  -79.6467 -61.4722 37.8265
LeftForeArm  7.24026 -9.90032 -0.829647
LeftHand  -0.244104 0.0205437 5.32207
RightShoulder  4.89315 18.8818 15.0012
RightArm  -74.0937 54.0055 -31.4578
RightForeArm  -22.2823 10.7513 3.27575
RightHand  -2.59363 8.5976 -21.4938
LeftUpLeg  -44.1696 13.9038 -8.5834
LeftLeg  24.3199 0.866482 0.765331
LeftFoot  -5.55234 -0.00327926 0.718001
LeftToes  -1.10052e-010 1.3781e-010 -2.1811e-011
236
root  75.5158 38.7761 2.50797 29.1213 -84.2984 -5.27403
RightUpLeg  -46.0605 -24.3514 14.8933
RightLeg  22.6157 -0.434854 -0.419609
RightFoot  -2.74207 0.314447 -4.42617
RightToes  2.91037e-010 0 -3.6325e-017
Spine  86.3019 -11.5786 10.2596
Spine1  7.70443 2.08087 -7.92005
HEad  -35.4433 -6.62652 0.828732
LeftShoulder1  7.83496 -30.4661 -16.0508
LeftArm  -79.6225 -63.6445 36.8184
LeftForeArm  12.998 -8.38073 -0.794463
LeftHand  -0.244104 0.0205437 5.32207
RightShoulder  5.37194 19.1917 16.9606
RightArm  -71.9445 55.489 -33.2581
RightForeArm  -23.4101 8.55265 4.05279
RightHand  -3.86053 10.7546 -27.5969
LeftUpLeg  -43.5055 13.7441 -8.28367
LeftLeg  23.9991 1.2188 0.9305
LeftFoot  -4.95636 -0.0733 1.85205
LeftToes  -1.10052e-010 1.3781e-010 -2.1811e-011
